<svg width="26" height="26" viewBox="0 0 26 26" fill="none" xmlns="http://www.w3.org/2000/svg">
<g clip-path="url(#clip0_47_464)">
<path d="M13 15.548C13.252 15.548 13.4982 15.4734 13.7079 15.3333C13.9173 15.1933 14.0806 14.9943 14.1771 14.7616C14.2735 14.5288 14.2987 14.2726 14.2495 14.0255C14.2003 13.7784 14.0791 13.5513 13.9009 13.3732C13.7228 13.1949 13.4957 13.0737 13.2485 13.0245C13.0014 12.9753 12.7452 13.0006 12.5125 13.097C12.2797 13.1934 12.0807 13.3568 11.9407 13.5662C11.8007 13.7758 11.726 14.022 11.726 14.274C11.726 14.6119 11.8603 14.936 12.0992 15.1748C12.3381 15.4136 12.6621 15.548 13 15.548ZM19.37 15.548C19.622 15.548 19.8682 15.4734 20.0779 15.3333C20.2873 15.1933 20.4506 14.9943 20.5471 14.7616C20.6435 14.5288 20.6687 14.2726 20.6195 14.0255C20.5703 13.7784 20.4491 13.5513 20.2709 13.3732C20.0928 13.1949 19.8657 13.0737 19.6185 13.0245C19.3714 12.9753 19.1152 13.0006 18.8825 13.097C18.6497 13.1934 18.4507 13.3568 18.3107 13.5662C18.1707 13.7758 18.096 14.022 18.096 14.274C18.096 14.6119 18.2303 14.936 18.4692 15.1748C18.7081 15.4136 19.0321 15.548 19.37 15.548ZM13 20.644C13.252 20.644 13.4982 20.5694 13.7079 20.4293C13.9173 20.2893 14.0806 20.0903 14.1771 19.8576C14.2735 19.6248 14.2987 19.3686 14.2495 19.1215C14.2003 18.8744 14.0791 18.6473 13.9009 18.4692C13.7228 18.2909 13.4957 18.1697 13.2485 18.1205C13.0014 18.0713 12.7452 18.0965 12.5125 18.193C12.2797 18.2894 12.0807 18.4527 11.9407 18.6622C11.8007 18.8718 11.726 19.118 11.726 19.37C11.726 19.7079 11.8603 20.0319 12.0992 20.2709C12.3381 20.5099 12.6621 20.644 13 20.644ZM19.37 20.644C19.622 20.644 19.8682 20.5694 20.0779 20.4293C20.2873 20.2893 20.4506 20.0903 20.5471 19.8576C20.6435 19.6248 20.6687 19.3686 20.6195 19.1215C20.5703 18.8744 20.4491 18.6473 20.2709 18.4692C20.0928 18.2909 19.8657 18.1697 19.6185 18.1205C19.3714 18.0713 19.1152 18.0965 18.8825 18.193C18.6497 18.2894 18.4507 18.4527 18.3107 18.6622C18.1707 18.8718 18.096 19.118 18.096 19.37C18.096 19.7079 18.2303 20.0319 18.4692 20.2709C18.7081 20.5099 19.0321 20.644 19.37 20.644ZM6.63001 15.548C6.88199 15.548 7.12834 15.4734 7.33786 15.3333C7.54727 15.1933 7.71064 14.9943 7.80705 14.7616C7.90347 14.5288 7.92871 14.2726 7.87953 14.0255C7.83034 13.7783 7.70901 13.5513 7.53091 13.3732C7.3527 13.1949 7.12564 13.0737 6.87853 13.0245C6.63142 12.9753 6.37521 13.0006 6.14251 13.097C5.9097 13.1934 5.71069 13.3568 5.57073 13.5662C5.43076 13.7758 5.35601 14.022 5.35601 14.274C5.35601 14.6119 5.49023 14.936 5.72911 15.1749C5.96809 15.4138 6.29212 15.548 6.63001 15.548ZM21.918 2.80801H20.644V1.53401C20.644 1.19612 20.5098 0.872093 20.2709 0.63311C20.032 0.394235 19.7079 0.26001 19.37 0.26001C19.0321 0.26001 18.7081 0.394235 18.4692 0.63311C18.2303 0.872093 18.096 1.19612 18.096 1.53401V2.80801H7.90401V1.53401C7.90401 1.19612 7.76979 0.872093 7.53091 0.63311C7.29193 0.394235 6.9679 0.26001 6.63001 0.26001C6.29212 0.26001 5.96809 0.394235 5.72911 0.63311C5.49023 0.872093 5.35601 1.19612 5.35601 1.53401V2.80801H4.08201C3.06834 2.80801 2.09626 3.21068 1.37942 3.92742C0.662685 4.64426 0.26001 5.61633 0.26001 6.63001V21.918C0.26001 22.9316 0.662685 23.9038 1.37942 24.6206C2.09626 25.3373 3.06834 25.74 4.08201 25.74H21.918C22.9316 25.74 23.9038 25.3373 24.6206 24.6206C25.3373 23.9038 25.74 22.9316 25.74 21.918V6.63001C25.74 5.61633 25.3373 4.64426 24.6206 3.92742C23.9038 3.21068 22.9316 2.80801 21.918 2.80801ZM23.192 21.918C23.192 22.2559 23.0578 22.58 22.8189 22.8189C22.58 23.0578 22.2559 23.192 21.918 23.192H4.08201C3.74412 23.192 3.42009 23.0578 3.18111 22.8189C2.94223 22.58 2.80801 22.2559 2.80801 21.918V10.452H23.192V21.918ZM23.192 7.90401H2.80801V6.63001C2.80801 6.29212 2.94223 5.96809 3.18111 5.72911C3.42009 5.49023 3.74412 5.35601 4.08201 5.35601H21.918C22.2559 5.35601 22.5799 5.49023 22.8189 5.72911C23.0578 5.96809 23.192 6.29212 23.192 6.63001V7.90401ZM6.63001 20.644C6.88199 20.644 7.12834 20.5694 7.33786 20.4293C7.54727 20.2893 7.71064 20.0903 7.80705 19.8576C7.90347 19.6248 7.92871 19.3686 7.87953 19.1215C7.83034 18.8743 7.70901 18.6473 7.53091 18.4692C7.3527 18.2909 7.12564 18.1697 6.87853 18.1205C6.63142 18.0713 6.37521 18.0965 6.14251 18.193C5.9097 18.2894 5.71069 18.4527 5.57073 18.6622C5.43076 18.8718 5.35601 19.118 5.35601 19.37C5.35601 19.7079 5.49023 20.032 5.72911 20.2709C5.96809 20.5098 6.29212 20.644 6.63001 20.644Z" fill="#34220F"/>
</g>
<defs>
<clipPath id="clip0_47_464">
<rect width="26" height="26" fill="white"/>
</clipPath>
</defs>
</svg>
