<svg width="20" height="22" viewBox="0 0 20 22" fill="none" xmlns="http://www.w3.org/2000/svg">
<path d="M19.3333 19.1041V8.47913C19.3333 8.28507 19.2911 8.09368 19.2101 7.92011C19.1291 7.74654 19.0115 7.59556 18.8666 7.47913L10.7 0.916626C10.498 0.754349 10.2524 0.666626 9.99996 0.666626C9.74753 0.666626 9.5019 0.754349 9.29996 0.916626L1.13329 7.47913C0.988397 7.59556 0.870793 7.74654 0.789794 7.92011C0.708795 8.09368 0.666626 8.28507 0.666626 8.47913V19.1041C0.666626 19.4356 0.789542 19.7536 1.00833 19.988C1.22713 20.2224 1.52387 20.3541 1.83329 20.3541H6.49996C6.65317 20.3541 6.80488 20.3218 6.94642 20.259C7.08797 20.1962 7.21658 20.1041 7.32492 19.988C7.43325 19.8719 7.51919 19.7341 7.57782 19.5825C7.63645 19.4308 7.66663 19.2683 7.66663 19.1041V15.3541C7.66663 15.0226 7.78954 14.7047 8.00833 14.4702C8.22713 14.2358 8.52387 14.1041 8.83329 14.1041H11.1666C11.476 14.1041 11.7728 14.2358 11.9916 14.4702C12.2104 14.7047 12.3333 15.0226 12.3333 15.3541V19.1041C12.3333 19.4356 12.4562 19.7536 12.675 19.988C12.8938 20.2224 13.1905 20.3541 13.5 20.3541H18.1666C18.476 20.3541 18.7728 20.2224 18.9916 19.988C19.2104 19.7536 19.3333 19.4356 19.3333 19.1041Z" fill="#34220F" stroke="#34220F" stroke-width="1.3333" stroke-linecap="round" stroke-linejoin="round"/>
</svg>
