<svg width="26" height="26" viewBox="0 0 26 26" fill="none" xmlns="http://www.w3.org/2000/svg">
<path d="M13 12.1875C11.2125 12.1875 9.75 11.6188 8.6125 10.4813C7.475 9.34375 6.90625 7.88125 6.90625 6.09375C6.90625 4.30625 7.475 2.84375 8.6125 1.70625C9.75 0.56875 11.2125 0 13 0C14.7875 0 16.25 0.56875 17.3875 1.70625C18.525 2.84375 19.0938 4.30625 19.0938 6.09375C19.0938 7.88125 18.525 9.34375 17.3875 10.4813C16.25 11.6188 14.7875 12.1875 13 12.1875ZM0 22.7906V21.4094C0 20.3802 0.257294 19.5 0.771875 18.7688C1.28646 18.0375 1.95 17.4823 2.7625 17.1031C4.57706 16.2906 6.31719 15.6812 7.98281 15.275C9.64844 14.8687 11.3208 14.6656 13 14.6656C14.6792 14.6656 16.3448 14.8755 17.9969 15.2953C19.6489 15.7151 21.3812 16.3203 23.1936 17.1108C24.0413 17.4935 24.721 18.0483 25.2326 18.7753C25.7442 19.5022 26 20.3802 26 21.4094V22.7906C26 23.4609 25.7614 24.0347 25.2842 24.5119C24.8067 24.9894 24.2328 25.2281 23.5625 25.2281H2.4375C1.76719 25.2281 1.19342 24.9894 0.716219 24.5119C0.238737 24.0347 0 23.4609 0 22.7906ZM2.4375 22.7906H23.5625V21.4094C23.5625 20.9761 23.4339 20.563 23.1766 20.1703C22.9192 19.7776 22.6011 19.4864 22.2219 19.2969C20.4886 18.4573 18.9042 17.8817 17.4688 17.5703C16.0333 17.2589 14.5437 17.1031 13 17.1031C11.4563 17.1031 9.95313 17.2589 8.49063 17.5703C7.02813 17.8817 5.44375 18.4573 3.7375 19.2969C3.35831 19.4864 3.04687 19.7776 2.80312 20.1703C2.55937 20.563 2.4375 20.9761 2.4375 21.4094V22.7906ZM13 9.75C14.0562 9.75 14.9297 9.40469 15.6203 8.71406C16.3109 8.02344 16.6562 7.15 16.6562 6.09375C16.6562 5.0375 16.3109 4.16406 15.6203 3.47344C14.9297 2.78281 14.0562 2.4375 13 2.4375C11.9438 2.4375 11.0703 2.78281 10.3797 3.47344C9.68906 4.16406 9.34375 5.0375 9.34375 6.09375C9.34375 7.15 9.68906 8.02344 10.3797 8.71406C11.0703 9.40469 11.9438 9.75 13 9.75Z" fill="#34220F"/>
</svg>
