<svg width="28" height="26" viewBox="0 0 28 26" fill="none" xmlns="http://www.w3.org/2000/svg">
<path d="M18.087 9.17359C20.256 9.17359 22.3361 9.9634 23.8697 11.3693C25.4033 12.7751 26.265 14.6819 26.265 16.6701C26.2702 18.1457 25.7943 19.5891 24.8988 20.8152L26.265 24.1665L21.6661 23.4081C20.56 23.9025 19.3466 24.1618 18.1161 24.1665C16.8856 24.1713 15.6698 23.9213 14.5593 23.4356C13.4488 22.9498 12.4722 22.2404 11.7022 21.3606C10.9323 20.4807 10.3889 19.4529 10.1126 18.3537C9.8362 17.2546 9.83396 16.1124 10.1061 15.0124C10.3782 13.9123 10.9176 12.8828 11.6841 12.0004C12.4506 11.118 13.4244 10.4055 14.533 9.91609C15.6417 9.42665 16.8565 9.17284 18.087 9.17359Z" stroke="#34220F" stroke-width="2.5" stroke-linecap="round" stroke-linejoin="round"/>
<path d="M19.2608 4.78168C17.965 3.27016 16.1872 2.16665 14.1751 1.62477C12.163 1.0829 10.0166 1.12964 8.03475 1.75848C6.05295 2.38732 4.33438 3.56697 3.11829 5.13318C1.90221 6.69938 1.24916 8.57422 1.25004 10.4966C1.24408 12.324 1.83373 14.1114 2.94336 15.6295L1.25004 19.7569L5.3294 19.0866" stroke="#34220F" stroke-width="2.5" stroke-linecap="round" stroke-linejoin="round"/>
</svg>
