<svg width="19" height="19" viewBox="0 0 19 19" fill="none" xmlns="http://www.w3.org/2000/svg">
<path d="M19 18.0062L13.6925 12.6987C14.9679 11.1676 15.6038 9.20375 15.4681 7.21569C15.3324 5.22762 14.4354 3.36842 12.9638 2.02483C11.4923 0.681247 9.55932 -0.0432698 7.56714 0.00200058C5.57496 0.047271 3.67693 0.858843 2.26789 2.26789C0.858843 3.67693 0.047271 5.57496 0.00200058 7.56714C-0.0432698 9.55932 0.681247 11.4923 2.02483 12.9638C3.36842 14.4354 5.22762 15.3324 7.21569 15.4681C9.20375 15.6038 11.1676 14.9679 12.6987 13.6925L18.0062 19L19 18.0062ZM1.43044 7.75548C1.43044 6.50451 1.8014 5.28162 2.4964 4.24148C3.1914 3.20133 4.17924 2.39063 5.33499 1.9119C6.49074 1.43318 7.7625 1.30792 8.98943 1.55197C10.2164 1.79603 11.3434 2.39843 12.228 3.283C13.1125 4.16757 13.7149 5.29459 13.959 6.52153C14.203 7.74846 14.0778 9.02022 13.5991 10.176C13.1203 11.3317 12.3096 12.3196 11.2695 13.0146C10.2293 13.7096 9.00646 14.0805 7.75548 14.0805C6.07855 14.0787 4.47083 13.4117 3.28505 12.2259C2.09928 11.0401 1.4323 9.43241 1.43044 7.75548Z" fill="#34220F"/>
</svg>
