<svg width="34" height="33" viewBox="0 0 34 33" fill="none" xmlns="http://www.w3.org/2000/svg">
<g clip-path="url(#clip0_47_2101)">
<path d="M3.76056 13.3153C3.83442 13.2647 3.91803 13.231 4.00363 13.2172L25.4118 9.76555C25.6924 9.72031 25.9262 9.89573 25.934 10.1574C25.9367 10.2473 25.9119 10.3398 25.8626 10.424L14.9025 29.1349C14.7588 29.3801 14.4469 29.4962 14.2058 29.3944C14.1322 29.3632 14.0709 29.3138 14.0276 29.2504L3.5795 13.9911C3.43743 13.7836 3.5185 13.481 3.76056 13.3153ZM6.63784 14.6968L10.0422 19.6689L14.4252 16.6679L15.4542 18.1707L11.0712 21.1717L14.4756 26.1439L22.6975 12.1075L6.63784 14.6968Z" fill="#FFF7D7"/>
</g>
<defs>
<clipPath id="clip0_47_2101">
<rect width="25.4973" height="21.8549" fill="white" transform="translate(0 14.4049) rotate(-34.3994)"/>
</clipPath>
</defs>
</svg>
